<svg width="29" height="33" viewBox="0 0 29 33" fill="none" xmlns="http://www.w3.org/2000/svg">
<g clip-path="url(#clip0_3_431)">
<path d="M27.2546 6.06935C27.1269 5.90173 26.9905 5.74082 26.846 5.58725C26.9914 5.20381 27.1018 4.80825 27.176 4.40531C27.395 2.93131 27.2048 1.42613 26.6259 0.0508214C26.6259 0.0508214 24.8656 -0.493491 20.8264 2.19697C19.1116 1.72845 17.3403 1.49301 15.5613 1.49714C13.7772 1.49405 12.0009 1.72945 10.2805 2.19697C6.24134 -0.524595 4.48106 0.0508214 4.48106 0.0508214C3.90913 1.41158 3.71908 2.8999 3.93098 4.35866C4.00555 4.77835 4.12136 5.18983 4.27675 5.58725C4.13529 5.74277 3.99384 5.91384 3.86811 6.06935C2.69527 7.525 2.07271 9.34008 2.10784 11.2014C2.10411 11.6429 2.1251 12.0842 2.1707 12.5234C2.67355 19.4128 7.3101 21.0146 11.7264 21.5123C11.1013 22.0874 10.6775 22.8445 10.5163 23.674C10.3702 24.2271 10.3015 24.7975 10.312 25.3691V27.4057C8.55449 27.5602 6.7498 27.3072 6.19074 25.7551C5.58973 24.27 4.59339 22.9737 3.30756 22.0039C3.21411 21.9533 3.12524 21.8949 3.04194 21.8292C2.92903 21.5354 2.72888 21.2822 2.46781 21.103C2.20673 20.9239 1.89697 20.827 1.57925 20.8254H1.57169C1.15614 20.8252 0.757451 20.988 0.462897 21.278C0.16834 21.5681 0.00190506 21.9618 2.19755e-05 22.3729C-0.00610754 23.6365 1.27164 24.4521 1.79578 24.73C2.40705 25.3394 2.89883 26.0557 3.2462 26.8426C3.8187 28.4342 5.49243 30.852 10.265 30.5376C10.2666 30.5923 10.2682 30.6439 10.2688 30.691L10.2757 31.1072C10.2757 31.3114 10.3163 31.5136 10.3953 31.7024C10.4742 31.8911 10.59 32.0625 10.7359 32.207C10.8819 32.3514 11.0552 32.466 11.2459 32.5441C11.4366 32.6222 11.641 32.6624 11.8474 32.6623L11.8523 32.6614L19.2567 32.6624C19.4631 32.6625 19.6674 32.6223 19.8582 32.5441C20.0489 32.466 20.2221 32.3514 20.3681 32.207C20.514 32.0626 20.6298 31.8911 20.7088 31.7025C20.7878 31.5137 20.8284 31.3115 20.8283 31.1072C20.8283 31.1072 20.8398 26.1934 20.8398 25.3692C20.8503 24.7976 20.7815 24.2272 20.6355 23.6741L20.6326 23.6645L20.6379 23.6741C20.6244 23.6196 20.6038 23.5752 20.589 23.5225C20.4135 22.7521 20.008 22.0517 19.4252 21.5123L19.4435 21.5447C19.4327 21.5352 19.4227 21.5215 19.4119 21.5123C23.8283 21.0146 28.4333 19.3816 28.9362 12.5234C28.9818 12.0842 29.0028 11.6429 28.9991 11.2014C29.0269 9.34381 28.4113 7.53275 27.2546 6.06935Z" fill="#EFEFEF"/>
</g>
<defs>
<clipPath id="clip0_3_431">
<rect width="29" height="33" fill="white"/>
</clipPath>
</defs>
</svg>
