<svg width="35" height="36" viewBox="0 0 35 36" fill="none" xmlns="http://www.w3.org/2000/svg">
<g clip-path="url(#clip0_3_437)">
<path d="M4.32256 8.10117H4.27179C3.71893 8.13467 3.16514 8.0532 2.64498 7.86177C2.12483 7.67028 1.6495 7.37296 1.24866 6.98837C0.847824 6.60378 0.53009 6.14016 0.315305 5.62647C0.100519 5.11277 -0.00670577 4.56005 0.000324644 4.00279C0.00735506 3.44553 0.12849 2.89571 0.356165 2.38768C0.58384 1.87964 0.913166 1.42429 1.32358 1.05005C1.73399 0.675821 2.21667 0.390748 2.74149 0.212635C3.2663 0.034521 3.82198 -0.0328074 4.37381 0.0148536C4.92837 -0.0255594 5.48525 0.0499142 6.00943 0.236529C6.53361 0.423142 7.01374 0.716861 7.41965 1.09921C7.82553 1.48157 8.14847 1.9443 8.36803 2.45829C8.5876 2.97229 8.69913 3.52643 8.69563 4.08589C8.69206 4.64535 8.57352 5.19802 8.34742 5.70916C8.1214 6.2203 7.79263 6.67884 7.3819 7.05595C6.97118 7.43307 6.48736 7.72061 5.96087 7.90051C5.43436 8.08036 4.87657 8.14868 4.32256 8.10117Z" fill="#EFEFEF"/>
<path d="M0.742554 13.544H7.9548V35.3151H0.742554V13.544Z" fill="#EFEFEF"/>
<path d="M26.8862 13.544C25.6709 13.5473 24.472 13.827 23.3792 14.3621C22.2864 14.8973 21.3279 15.6741 20.5755 16.6344V13.544H13.3632V35.3151H20.5755V25.3366C20.5755 24.3743 20.9554 23.4514 21.6317 22.7709C22.308 22.0905 23.2252 21.7081 24.1816 21.7081C25.138 21.7081 26.0552 22.0905 26.7315 22.7709C27.4078 23.4514 27.7877 24.3743 27.7877 25.3366V35.3151H35V21.7081C35 20.636 34.7901 19.5744 34.3824 18.5838C33.9746 17.5933 33.377 16.6933 32.6235 15.9352C31.8701 15.177 30.9756 14.5757 29.9913 14.1654C29.0068 13.7551 27.9517 13.544 26.8862 13.544Z" fill="#EFEFEF"/>
</g>
<defs>
<clipPath id="clip0_3_437">
<rect width="35" height="36" fill="white"/>
</clipPath>
</defs>
</svg>
