<svg width="32" height="40" viewBox="0 0 32 40" fill="none" xmlns="http://www.w3.org/2000/svg">
<path d="M10.0293 39.7383C10 39.0303 9.98572 38.3219 10.0032 37.6144C10.0326 36.4294 10.4446 35.3683 11.1169 34.406C11.7167 33.5474 12.4988 32.8813 13.4515 32.4599C14.0511 32.1947 14.7033 32.0483 15.2507 31.8744C14.5029 31.7454 13.8138 31.3113 13.2786 30.6633C12.7554 30.03 12.4722 29.2533 12.5172 28.4488C12.6502 26.074 14.4008 24.9796 16.048 25.0003C17.9518 25.0243 19.2699 26.4751 19.4355 28.0016C19.6928 30.373 17.9843 31.6716 16.5891 31.8942C17.4403 32.0284 18.194 32.2332 18.8834 32.6168C19.8156 33.1356 20.5673 33.843 21.1317 34.759C21.7577 35.775 22.0383 36.8685 22.0028 38.0556C21.9865 38.5965 22 39.1383 22 39.709C18.0195 39.7383 14.0391 39.7383 10.0293 39.7383Z" fill="#D9D9D9"/>
<path d="M0 36.8927C0.041633 36.8228 0.109946 36.7884 0.120913 36.7407C0.297238 35.9747 0.635728 35.2799 1.11251 34.666C1.84572 33.7219 2.79655 33.0724 3.952 32.7417C4.24765 32.6571 4.55157 32.6013 4.8806 32.5257C3.16819 32.134 2.14299 30.6882 2.32584 29.0459C2.51429 27.3535 3.87451 26.1209 5.61313 26.1924C7.34283 26.2635 8.49685 27.4164 8.67482 29.0281C8.88264 30.9101 7.63336 32.1611 6.21254 32.534C7.3655 32.7228 8.38705 33.1825 9.20672 33.9224C8.94212 34.6156 8.65656 35.2663 8.44641 35.9406C8.22077 36.6645 8.15725 37.4193 8.18423 38.1812C8.20191 38.6802 8.18757 39.1803 8.18754 39.7091C5.62369 39.7384 3.05989 39.7384 0.485526 39.7205C0.316646 39.5688 0.158323 39.4348 9.68575e-08 39.3009C2.96858e-07 38.5079 3e-07 37.715 0 36.8927Z" fill="#D9D9D9"/>
<path d="M23.8418 39.7382C23.8125 39.1759 23.7979 38.613 23.8153 38.0512C23.8607 36.5832 23.4734 35.2308 22.7551 33.9529C23.6265 33.1834 24.6414 32.713 25.8879 32.5466C23.7519 31.9385 23.1014 30.2934 23.3358 28.917C23.6592 27.018 25.0403 26.1633 26.5679 26.1937C28.3129 26.2284 29.5262 27.5073 29.6766 29.0757C29.8389 30.7667 28.7623 32.1529 27.1593 32.5168C27.5753 32.6312 28.004 32.7308 28.4203 32.868C29.0296 33.0688 29.5567 33.4136 30.0568 33.8171C30.7041 34.3392 31.1744 34.9875 31.5181 35.7304C31.6682 36.055 31.7568 36.4079 31.8763 36.7469C31.8955 36.8011 31.9304 36.8498 31.979 36.8822C32 37.6562 32 38.4492 31.9821 39.2527C31.8303 39.4216 31.6964 39.5799 31.5625 39.7382C28.9987 39.7382 26.4349 39.7382 23.8418 39.7382Z" fill="#D9D9D9"/>
<path d="M25.3333 1H6.66667C5.19391 1 4 1.89543 4 3V17C4 18.1046 5.19391 19 6.66667 19H12L16 22.5L20 19H25.3333C26.8061 19 28 18.1046 28 17V3C28 1.89543 26.8061 1 25.3333 1Z" stroke="#F56B07" stroke-width="2" stroke-linecap="round" stroke-linejoin="round"/>
<path d="M12 10H20" stroke="#F56B07" stroke-width="2" stroke-linecap="round" stroke-linejoin="round"/>
<path d="M16 6V14" stroke="#F56B07" stroke-width="2" stroke-linecap="round" stroke-linejoin="round"/>
</svg>
