<svg width="50" height="50" viewBox="0 0 50 50" fill="none" xmlns="http://www.w3.org/2000/svg">
<circle cx="25" cy="25" r="25" fill="#D9D9D9"/>
<path d="M39.7471 14.6633L28.1047 27.655C27.9584 27.8109 27.7567 27.8989 27.5459 27.8989C27.3351 27.8989 27.1333 27.8109 26.987 27.655L23.7427 24.3234C23.5909 24.1732 23.5052 23.966 23.5052 23.7496C23.5052 23.5331 23.5909 23.3259 23.7427 23.1757L36.3941 11.2201C36.6939 10.9266 37.1654 10.9266 37.4652 11.2201L39.7005 13.5156C39.8586 13.6592 39.9529 13.8628 39.9617 14.0793C39.9704 14.2958 39.893 14.5067 39.7471 14.6633ZM25.4968 30.0621L21.4453 25.8856C21.1998 25.6209 20.8793 25.4424 20.5294 25.3755C20.2761 25.3592 20.0221 25.3592 19.7688 25.3755C18.1215 25.3742 16.5412 26.0451 15.3757 27.2406C12.2711 30.4287 14.6461 33.9197 12.1313 37.7615C11.9259 38.0764 11.9648 38.4963 12.2245 38.7657C13.0167 39.3905 13.9887 39.727 14.9876 39.7222C18.382 39.9562 21.7144 38.7055 24.1618 36.279C25.3298 35.0783 25.9835 33.4489 25.978 31.7518C25.978 31.4967 25.978 31.2258 25.978 30.9707C25.9204 30.6213 25.7511 30.3016 25.4968 30.0621Z" fill="black"/>
</svg>
