<svg width="32" height="33" viewBox="0 0 32 33" fill="none" xmlns="http://www.w3.org/2000/svg">
<path d="M0 30.9399C0.0260676 30.9156 0.0671878 30.9189 0.0760382 30.904C0.466055 30.2485 0.856219 29.5939 1.09602 28.8659C1.31849 28.1905 1.48809 27.5055 1.55308 26.7983C1.59845 26.3047 1.63987 25.8107 1.67902 25.3165C1.72355 24.7546 1.74561 24.1904 1.80949 23.6306C1.926 22.6095 2.13347 21.6093 2.64031 20.6906C2.92242 20.1792 3.2683 19.7161 3.66654 19.2814C4.29604 18.5943 5.04289 18.0665 5.88658 17.6701C6.56837 17.3497 7.28793 17.1307 8.05043 17.0778C8.51243 17.0458 8.97486 17.0052 9.43747 17.0001C9.92577 16.9947 10.3575 17.157 10.7075 17.5045C11.0649 17.8593 11.4315 18.2054 11.7894 18.5598C12.2829 19.0486 12.7722 19.5415 13.2629 20.0329C13.7146 20.4853 14.1691 20.9351 14.6163 21.3917C14.98 21.763 15.3519 22.1288 15.6871 22.5235C15.9112 22.7875 16.0126 23.1157 15.9988 23.4699C15.9797 23.9565 15.9969 24.446 15.949 24.9297C15.8785 25.6416 15.6832 26.3276 15.3988 26.9901C15.1322 27.6108 14.7796 28.1852 14.3394 28.6952C13.9859 29.1047 13.5738 29.4722 13.1544 29.8205C12.7027 30.1956 12.2302 30.5528 11.7352 30.8715C10.5401 31.6408 9.25126 32.2232 7.85397 32.5505C7.20696 32.7021 6.54667 32.7999 5.89286 32.9244C5.86244 32.9302 5.83646 32.9579 5.82239 32.9895C4.79979 33.0035 3.7632 33.0035 2.72067 32.9897C2.687 32.9582 2.66074 32.928 2.63131 32.9247C2.0108 32.8554 1.4383 32.6463 0.899402 32.3497C0.576981 32.1722 0.232556 32.0127 0.0600386 31.6587C0.0559878 31.6504 0.0207116 31.6565 1.25135e-07 31.6558C1.25135e-07 31.4236 1.25965e-07 31.1913 0 30.9399Z" fill="#D9D9D9"/>
<path d="M32 4.06298C31.979 4.08408 31.9475 4.07583 31.9385 4.08687C31.6718 4.41378 31.4156 4.75002 31.1409 5.0696C30.541 5.76758 29.9331 6.45839 29.326 7.14983C29.017 7.50166 28.699 7.84507 28.3917 8.19835C27.8581 8.81177 27.3317 9.43175 26.7983 10.0453C26.4958 10.3933 26.1822 10.7312 25.8792 11.0787C25.3213 11.7183 24.7681 12.3623 24.2116 13.0032C23.9515 13.3027 23.6875 13.5987 23.4263 13.8973C22.8205 14.59 22.2168 15.2846 21.6095 15.9759C21.2958 16.333 20.9722 16.6811 20.66 17.0395C20.1166 17.6632 19.5818 18.2946 19.0369 18.9168C18.7743 19.2167 18.5047 19.5111 18.2242 19.7931C17.9436 20.0752 17.3904 20.0663 17.1084 19.7821C16.6249 19.2947 16.1452 18.8033 15.6693 18.3081C15.2002 17.82 14.7372 17.3257 14.2726 16.833C13.916 16.4549 13.5589 16.0773 13.2063 15.6953C12.9325 15.3987 12.9277 14.7502 13.213 14.4639C13.9619 13.7127 14.7188 12.9699 15.4765 12.2279C15.8971 11.816 16.3276 11.4147 16.7503 11.0049C17.3422 10.431 17.9301 9.85263 18.5213 9.2779C19.0101 8.80279 19.5014 8.33052 19.991 7.85636C20.5166 7.34741 21.0412 6.83747 21.5667 6.32842C22.0612 5.84932 22.5565 5.37106 23.0511 4.89198C23.5763 4.3832 24.1007 3.87357 24.626 3.36489C25.1154 2.89101 25.6059 2.4183 26.0952 1.94435C26.6256 1.43063 27.1537 0.914408 27.6862 0.403043C27.8267 0.268128 27.9799 0.147103 28.1137 0.0083967C28.3412 -0.0029071 28.5823 -0.0029071 28.8299 0.00906006C29.0437 0.209308 29.2616 0.386805 29.4565 0.587855C30.0859 1.23723 30.7096 1.89243 31.3293 2.55154C31.5414 2.77709 31.7346 3.02125 31.9386 3.25489C31.9481 3.26578 31.979 3.25701 32 3.25739C32 3.51913 32 3.78088 32 4.06298Z" fill="#D9D9D9"/>
</svg>
