<svg width="30" height="30" viewBox="0 0 30 30" fill="none" xmlns="http://www.w3.org/2000/svg">
<path d="M1.04404e-09 27.4295C-1.69679e-07 26.9351 -1.6451e-07 26.4407 0.0180882 25.9367C0.0576892 25.9085 0.0926362 25.8936 0.0987632 25.8709C0.291035 25.1589 0.74832 24.613 1.24809 24.1089C3.16339 22.1768 5.09113 20.2571 7.01742 18.3359C7.2009 18.1529 7.27723 17.9992 7.13201 17.7305C6.83336 17.1779 6.57064 16.6045 6.31764 16.029C5.75798 14.7557 5.54162 13.4045 5.46917 12.028C5.44857 11.6367 5.47452 11.2381 5.52581 10.8489C5.61956 10.1377 5.69965 9.41901 5.87162 8.72478C6.3162 6.92996 7.19974 5.35032 8.4193 3.9719C9.19172 3.09885 10.078 2.3471 11.085 1.73767C12.4832 0.891538 13.9706 0.316378 15.5961 0.109509C15.6369 0.104317 15.6699 0.0378758 15.7065 1.90971e-10C16.7889 -5.67167e-08 17.8714 -5.08794e-08 18.963 0.0201009C19.1282 0.0836347 19.2818 0.141455 19.4406 0.168182C20.5309 0.351728 21.5655 0.702772 22.5589 1.18365C23.3638 1.57328 24.1315 2.0279 24.7889 2.63398C25.4382 3.23257 26.0931 3.83737 26.657 4.51329C27.3252 5.31424 27.8417 6.2253 28.2375 7.20041C28.6145 8.12945 28.901 9.07959 29.0273 10.0762C29.0324 10.117 29.0988 10.1499 29.1367 10.1865C29.1367 11.2689 29.1367 12.3513 29.1165 13.443C29.0719 13.5092 29.0369 13.5641 29.0247 13.6237C28.9452 14.0095 28.8868 14.4003 28.7915 14.7821C28.47 16.0703 27.9347 17.268 27.2009 18.3729C26.5847 19.3005 25.85 20.1242 24.9983 20.8476C24.3009 21.4398 23.5538 21.949 22.7417 22.3685C21.8843 22.8115 20.9951 23.174 20.0446 23.3444C19.2541 23.4862 18.4552 23.6062 17.6549 23.6596C17.1193 23.6954 16.5688 23.6352 16.0357 23.5507C15.3217 23.4375 14.6115 23.2842 13.9113 23.1029C13.0226 22.8728 12.2032 22.462 11.409 22.01C11.1624 21.8697 11.0057 21.9157 10.8248 22.0953C8.74239 24.1626 6.66369 26.2336 4.56438 28.2835C4.291 28.5504 3.90672 28.7034 3.57538 28.9116C3.46234 28.9827 3.35415 29.0615 3.24374 29.1367C2.74935 29.1367 2.25496 29.1367 1.75127 29.119C1.72389 29.0795 1.71009 29.0463 1.68708 29.0377C0.928275 28.7545 0.407901 28.2316 0.108217 27.4819C0.0972313 27.4544 0.0371834 27.4465 1.04404e-09 27.4295ZM23.5605 5.77557C22.7111 4.89087 21.7223 4.21067 20.5826 3.75466C19.7151 3.40758 18.8179 3.17025 17.8822 3.13674C17.3571 3.11793 16.8279 3.14874 16.3033 3.191C15.4003 3.26375 14.5389 3.51779 13.7207 3.89788C12.4635 4.48195 11.3894 5.30317 10.5236 6.39862C9.93784 7.13979 9.48575 7.94745 9.16003 8.83027C8.75297 9.93358 8.57853 11.0661 8.64046 12.2468C8.68296 13.0571 8.8169 13.845 9.07179 14.6064C9.44857 15.7318 10.0444 16.7456 10.8364 17.6284C11.5664 18.4421 12.4336 19.0916 13.4105 19.5894C14.2316 20.0077 15.104 20.2745 16.009 20.4223C16.4674 20.4972 16.9365 20.5305 17.4013 20.5354C17.7521 20.5391 18.1034 20.4631 18.4552 20.4309C19.2681 20.3563 20.0426 20.1261 20.7811 19.7971C22.1884 19.1701 23.3631 18.2492 24.2927 17.0032C25.2867 15.6707 25.8447 14.1775 25.9936 12.5412C26.0671 11.7342 26.0102 10.9194 25.8449 10.1105C25.5058 8.45159 24.7569 7.02169 23.5605 5.77557Z" fill="#EFEFEF"/>
<path d="M13.0477 10.3736C12.7844 10.9282 12.1926 11.2619 11.699 11.1461C10.9645 10.9739 10.5753 10.3968 10.6588 9.8374C10.7176 9.44318 10.8813 9.0385 11.0946 8.69919C11.4705 8.10142 11.8725 7.50527 12.3536 6.99289C12.7655 6.55414 13.2872 6.21011 13.7891 5.86605C14.6413 5.28183 15.611 4.94975 16.6184 4.79622C17.457 4.66843 18.3198 4.62376 19.1605 4.83798C19.769 4.99304 20.383 5.14608 20.9672 5.37109C21.4539 5.55854 21.6544 6.10172 21.6193 6.55678C21.5791 7.077 21.1723 7.59466 20.7254 7.67033C20.3097 7.74073 19.9125 7.6216 19.5055 7.4879C18.2308 7.06914 16.9707 7.11452 15.725 7.67523C14.485 8.23344 13.6246 9.1404 13.0477 10.3736Z" fill="#EFEFEF"/>
</svg>
