<svg width="222" height="184" viewBox="0 0 222 184" fill="none" xmlns="http://www.w3.org/2000/svg">
<path d="M91.6571 9.3032C81.2011 10.4854 74.7028 14.0426 72.6173 19.836C72.3092 20.6146 71.4163 21.7085 70.5879 22.2351L69.1042 23.2126L69.7033 20.8392C70.1514 19.3105 70.1928 17.4951 69.817 15.4877C69.3263 12.5568 67.3814 7.44544 66.7853 7.3763C65.7015 7.25059 60.1752 12.8844 58.3958 15.9831C56.2052 19.8005 55.9329 23.6487 57.6708 27.6823L59.0558 30.9564L56.674 33.0751L54.3463 35.2001L54.2354 32.7923C54.0319 29.751 52.9989 26.2782 51.3487 23.4044L50.1219 21.1545L48.5304 22.5985C45.8942 25.023 42.7346 29.6381 41.7461 32.5411C40.428 36.4118 40.8923 40.0581 43.1062 43.2847L44.7558 45.6794L42.3046 48.8917L39.8046 52.0505L39.2383 49.3025C38.9712 47.7866 38.3732 45.8013 37.9821 44.8937C37.0102 42.8171 32.1224 37.0291 31.5917 37.3508C31.4078 37.521 30.4015 39.1287 29.4281 40.9317C28.0382 43.5008 27.5144 45.2123 27.1111 48.279C26.5419 53.2904 27.4714 56.2243 30.9645 59.7908L33.3727 62.2735L31.7939 65.5391L30.1556 68.8458L29.3842 66.9361C28.9551 65.8804 27.9997 64.1411 27.1913 63.0414C25.775 61.009 19.967 56.0723 18.8832 55.9466C18.1245 55.8586 16.8406 61.3618 16.8387 64.7625C16.7743 70.6466 20.031 76.2933 25.0023 78.9296L27.019 80.0257L26.6001 83.7133L26.1867 87.3536L23.4039 84.3006C20.7189 81.3547 15.9204 78.1636 12.4299 76.9924C11.1074 76.5515 10.9341 76.6273 10.8267 77.5728C10.6338 79.7538 11.5878 85.3729 12.5984 88.0767C14.038 91.8361 17.6668 95.6579 21.3692 97.3807C23.0442 98.1019 24.8329 98.7883 25.3748 98.8512C26.1335 98.9392 26.3834 99.6388 26.5973 102.106C26.7886 103.805 27.0235 105.605 27.1865 106.103C27.3876 106.749 27.0245 106.563 25.8313 105.466C22.702 102.565 18.0671 100.351 11.2544 98.4587C9.55254 97.9739 9.49299 98.0149 9.72733 99.3354C10.1799 102.118 12.9275 107.897 15.0487 110.491C17.989 114.089 22.5756 116.728 26.9488 117.379L30.1353 117.845L31.7644 121.387C32.6441 123.309 33.3774 125.07 33.4154 125.218C33.3993 125.36 32.0441 124.724 30.4448 123.82C26.1619 121.407 17.0244 119.198 14.8363 120.094C14.2027 120.355 14.2139 120.74 15.0985 122.136C18.7185 127.968 22.8837 131.9 27.936 134.306C30.1749 135.38 36.369 136.434 38.5415 136.159C39.327 136.011 40.0266 136.619 41.2529 138.39C44.4599 143.025 44.4432 142.688 41.332 141.56C38.1666 140.427 31.5882 139.855 27.0807 140.386L24.4098 140.699L27.6046 143.992C29.6223 146.046 32.3986 148.188 34.8166 149.618C38.3243 151.606 39.4354 151.974 43.3156 152.616C46.502 153.081 48.691 153.143 50.5925 152.837L53.3879 152.395L56.3869 154.994L59.3805 157.64L54.5796 157.371C51.09 157.158 48.5924 157.395 45.2176 158.105C42.6282 158.667 40.5266 159.286 40.5051 159.475C40.4245 160.184 47.9876 164.654 51.7223 166.093C57.2945 168.272 63.3417 168.686 67.9566 167.209L71.3148 166.162L75.1911 168.288L79.062 170.461L76.0982 170.453C72.6305 170.53 66.0004 172.347 63.0005 174.107C60.4771 175.538 60.6723 175.753 66.6834 177.935C76.066 181.37 84.0742 181.437 89.5542 178.145L92.2617 176.543L97.8398 179.154C100.919 180.565 103.808 181.714 104.306 181.676C105.357 181.606 106.628 178.64 105.814 178.067C105.511 177.84 104.297 177.412 103.066 177.125C101.896 176.798 99.565 176.049 97.9281 175.476L94.9252 174.361L95.1166 170.743C95.4612 163.358 91.4195 158.339 81.787 154.204C77.1306 152.179 76.9627 152.208 77.4973 155.718C78.1627 160.011 79.5262 163.474 81.8105 166.565C84.0513 169.555 84.1055 169.561 78.4078 166.553C74.0058 164.223 74.0058 164.223 75.1955 161.966C76.5096 159.579 76.7537 154.53 75.6567 152.104C74.0819 148.568 70.0464 144.46 65.3622 141.713C62.684 140.157 62.2456 140.633 62.1475 145.364C61.984 149.704 62.9531 154.223 64.4889 156.652L65.6122 158.363L64.0886 157.276C62.1583 155.903 56.8004 151.354 56.8272 151.117C56.838 151.023 57.6225 149.916 58.6452 148.646C60.1386 146.616 60.4574 145.743 60.8548 142.244C61.236 138.887 61.1374 137.822 60.2196 135.752C59.0411 133.077 53.2692 126.372 52.2616 126.542C51.4219 126.684 49.1738 132.459 48.7652 135.573C48.5446 137.032 48.6065 139.386 48.879 140.855L49.3422 143.543L46.9281 140.629C42.7238 135.591 42.7726 135.644 45.3552 133.692C49.6864 130.363 51.4756 126.212 50.6037 121.32C50.0857 118.147 47.9625 113.638 46.1455 111.75L45.1149 110.673L42.7935 113.709C40.0284 117.268 37.9258 122.245 38.0044 124.936C38.0542 125.948 37.9248 126.604 37.6808 126.336C37.1004 125.646 34.1512 118.742 34.2103 118.221C34.2371 117.985 35.4175 117.26 36.869 116.566C44.0556 113.232 46.8881 106.663 44.5828 98.9236C43.1529 94.1115 43.0445 94.0989 39.2117 97.3905C35.314 100.77 33.4579 103.094 32.0363 106.426L31.058 108.755L30.3442 104.888C29.4782 100.429 29.4933 99.3288 30.3603 99.4294C31.7151 99.5865 36.9904 97.6119 39.3079 96.0605C43.7641 93.0807 45.9209 88.1098 45.4595 82.0209L45.1852 78.6361L43.414 79.245C42.4391 79.6109 39.4391 81.3705 36.7644 83.1679C33.0175 85.703 31.6047 87.024 30.5121 88.9091L29.0788 91.3773L29.648 86.366L30.1631 81.3484L32.3682 81.2688C36.2205 81.1888 40.5757 80.0654 43.2939 78.3689C46.413 76.5273 49.6218 72.4448 50.4747 69.2866C50.7768 68.0762 51.187 66.3994 51.4462 65.5673C51.9373 63.6604 51.3412 63.5912 46.6936 64.8724C41.7644 66.2166 36.4572 68.954 34.1515 71.369C31.7862 73.8249 31.7863 73.8249 33.8132 69.0306C36.0726 63.6405 35.7747 63.8454 41.1717 64.184C46.9533 64.5193 50.7451 63.5222 54.7029 60.5803C58.5361 57.7678 63.4161 50.5741 61.682 50.373C61.3569 50.3353 59.0326 50.4968 56.5838 50.7875C51.6429 51.2682 46.5998 52.6471 43.7244 54.2775C42.7226 54.8798 41.9157 55.2173 41.9318 55.0755C41.9532 54.8864 43.1327 53.203 44.5558 51.3084L47.0988 47.7714L49.0447 48.524C50.1558 48.8923 53.1201 49.3799 55.6778 49.5807C61.4433 50.0579 65.5114 49.0449 69.9295 45.917C73.3893 43.4922 76.2686 40.3774 75.818 39.5108C75.5847 39.1485 74.0781 38.8779 71.0167 38.7623C64.3519 38.4683 59.5735 38.9678 55.9501 40.4156L52.6788 41.6648L53.8045 40.4541C54.3728 39.8016 56.3431 37.9225 58.1294 36.2137L61.4423 33.1492L63.6323 34.1696C65.0417 34.8121 67.6648 35.4037 70.7482 35.8093C75.1321 36.3656 75.9611 36.3182 79.3628 35.3715C84.4111 33.9453 92.2295 28.4336 91.0578 27.1482C90.8626 26.9339 87.7357 26.4275 84.0997 26.0537C77.8679 25.3308 75.8849 25.3882 71.2749 26.3384C70.5978 26.4993 71.1065 25.8878 72.7199 24.7337C75.0481 23.0878 75.6764 22.8733 78.3585 22.9449C82.4115 23.0318 86.7935 21.672 89.912 19.3513C93.6965 16.4852 99.0624 9.1174 97.155 8.99197C96.7757 8.94798 93.9326 9.08814 91.6571 9.3032Z" fill="#F56B07"/>
<path d="M125.09 10.5575C126.057 13.2698 129.282 17.4915 131.864 19.4419C134.983 21.761 139.365 23.1197 143.418 23.0324C146.1 22.9606 146.728 23.1749 149.056 24.8197C150.67 25.973 151.178 26.5842 150.501 26.4234C145.891 25.4742 143.908 25.417 137.677 26.1401C134.041 26.5142 130.914 27.0205 130.718 27.2347C129.547 28.5196 137.365 34.0275 142.413 35.4525C145.815 36.3983 146.644 36.4457 151.028 35.8891C154.111 35.4835 156.734 34.8919 158.144 34.2497L160.334 33.2296L163.646 36.2921C165.433 37.9998 167.408 39.9249 168.09 40.6117L169.221 41.8688L166.909 40.8445C163.329 39.2971 158.757 38.6786 152.406 38.841C145.395 38.9843 144.88 39.2834 147.218 41.9803C149.631 44.8599 154.488 47.9827 158.128 49.0923C160.798 49.8835 162.294 49.9973 166.098 49.6516C168.655 49.4506 171.62 48.9631 172.731 48.5948L174.677 47.8424L177.22 51.3772C178.643 53.2707 179.822 54.953 179.843 55.142C179.86 55.2837 179.053 54.9465 178.051 54.3447C175.176 52.7155 170.133 51.3378 165.192 50.8579C162.743 50.5675 160.419 50.4063 160.094 50.444C158.359 50.6452 163.239 57.8346 167.072 60.6452C171.03 63.5851 174.822 64.5813 180.603 64.2456C186 63.9066 185.702 63.7018 187.962 69.0888C189.988 73.8803 189.988 73.8803 187.623 71.426C185.318 69.0125 180.011 66.2772 175.081 64.9342C170.434 63.6542 169.838 63.7234 170.329 65.6291C170.588 66.4608 170.998 68.1367 171.3 69.3463C172.153 72.5028 175.362 76.5827 178.481 78.423C181.253 80.112 185.272 81.1776 189.293 81.2856L191.606 81.3523L192.121 86.3672L192.696 91.423L191.262 88.9562C190.175 87.1196 188.643 85.7175 185.01 83.2188C182.335 81.4226 179.336 79.6643 178.361 79.2987L176.59 78.6903L176.315 82.0733C175.854 88.1589 178.01 93.1269 182.466 96.1047C184.784 97.655 190.059 99.6281 191.414 99.4709C192.281 99.3703 192.296 100.47 191.43 104.927L190.716 108.791L189.673 106.375C188.386 103.269 186.146 100.465 182.259 97.1819C178.784 94.1382 178.627 94.2043 177.191 98.9667C174.886 106.703 177.718 113.268 184.905 116.599C186.356 117.292 187.537 118.017 187.563 118.253C187.623 118.773 184.673 125.674 184.093 126.364C183.849 126.631 183.719 125.976 183.769 124.965C183.848 122.275 181.745 117.301 178.98 113.744L176.659 110.71L175.629 111.787C173.811 113.673 171.688 118.18 171.17 121.352C170.298 126.241 172.087 130.39 176.418 133.717C179.001 135.667 179.05 135.614 174.845 140.65L172.431 143.563L172.894 140.876C173.167 139.408 173.229 137.055 173.008 135.597C172.6 132.484 170.352 126.713 169.512 126.571C168.505 126.401 162.732 133.103 161.554 135.777C160.636 137.846 160.537 138.911 160.919 142.266C161.316 145.762 161.635 146.635 163.182 148.657C164.151 149.933 164.935 151.039 164.946 151.134C164.973 151.37 159.615 155.917 157.684 157.29L156.161 158.377L157.284 156.666C158.82 154.238 159.789 149.721 159.626 145.384C159.528 140.656 159.089 140.18 156.411 141.735C151.727 144.481 147.691 148.588 146.116 152.122C145.019 154.547 145.263 159.593 146.578 161.978C147.767 164.234 147.767 164.234 143.365 166.563C137.667 169.57 137.722 169.564 139.962 166.575C142.247 163.486 143.61 160.024 144.276 155.734C144.811 152.225 144.643 152.197 139.986 154.221C130.354 158.355 126.312 163.372 126.656 170.752L126.848 174.368L123.845 175.483C122.208 176.056 119.877 176.805 118.706 177.132C117.476 177.419 116.262 177.847 115.958 178.073C115.145 178.647 116.415 181.611 117.466 181.681C117.965 181.718 120.854 180.569 123.933 179.159L129.511 176.549L132.219 178.15C137.698 181.439 145.707 181.372 155.089 177.938C161.1 175.756 161.296 175.542 158.772 174.111C155.772 172.353 149.142 170.537 145.675 170.46L142.711 170.469L146.582 168.297L150.458 166.171L153.816 167.218C158.431 168.693 164.478 168.279 170.05 166.1C173.785 164.662 181.348 160.194 181.268 159.485C181.246 159.296 179.145 158.678 176.609 158.11C173.18 157.407 170.683 157.17 167.193 157.384L162.392 157.653L165.386 155.008L168.385 152.41L171.18 152.852C173.082 153.158 175.271 153.095 178.457 152.63C182.338 151.988 183.449 151.62 186.956 149.633C189.374 148.203 192.151 146.062 194.169 144.009L197.363 140.718L194.692 140.405C190.185 139.875 183.607 140.447 180.441 141.58C177.33 142.707 177.313 143.044 180.52 138.411C181.747 136.641 182.446 136.034 183.232 136.182C185.404 136.456 191.598 135.402 193.837 134.329C198.89 131.923 203.055 127.993 206.675 122.164C207.56 120.768 207.571 120.384 206.937 120.122C204.749 119.227 195.612 121.436 191.383 123.842C189.729 124.752 188.374 125.388 188.358 125.246C188.396 125.098 189.129 123.338 190.009 121.416L191.638 117.876L194.825 117.411C199.198 116.76 203.785 114.121 206.725 110.524C208.846 107.933 211.594 102.156 212.047 99.3748C212.281 98.055 212.222 98.0141 210.52 98.4988C203.707 100.39 199.072 102.604 195.943 105.504C194.652 106.707 194.392 106.833 194.582 106.093C194.745 105.595 195.034 103.79 195.171 102.099C195.45 99.7207 195.749 98.9679 196.453 98.8861C196.941 98.8296 198.73 98.1433 200.405 97.4223C204.107 95.7001 207.736 91.8801 209.176 88.1225C210.187 85.4201 211.141 79.8039 210.948 77.6241C210.841 76.6791 210.667 76.6034 209.399 77.0378C205.854 78.2151 201.056 81.4049 198.425 84.3432L195.588 87.4012L195.174 83.7629L194.756 80.0774L196.772 78.9816C201.744 76.3462 205 70.7023 204.936 64.8213C204.934 61.4225 203.651 55.9223 202.892 56.0104C201.808 56.1361 196 61.0708 194.584 63.1022C193.775 64.2013 192.82 65.9399 192.391 66.995L191.619 68.9037L189.981 65.599L188.402 62.3353L190.811 59.8537C194.304 56.2887 195.233 53.3563 194.664 48.3478C194.261 45.2827 193.737 43.5722 192.348 41.0047C191.374 39.2027 190.368 37.596 190.184 37.4258C189.653 37.1044 184.765 42.8897 183.793 44.9654C183.402 45.8724 182.804 47.8568 182.537 49.3719L181.971 52.1185L179.471 48.9617L177.02 45.7513L178.669 43.3577C180.883 40.1326 181.348 36.4882 180.03 32.6198C179.041 29.7184 175.882 25.1062 173.246 22.6833L171.654 21.2402L170.427 23.489C168.777 26.3614 167.744 29.8324 167.54 32.8721L167.43 35.2786L165.102 33.155L162.72 31.0377L164.105 27.7652C166.886 21.3147 164.4 14.9008 156.897 8.78188C155.988 8.02569 155.154 7.45221 154.991 7.47106C154.395 7.54023 152.45 12.649 151.959 15.5784C151.584 17.5848 151.625 19.3992 152.073 20.927L152.672 23.2991L151.188 22.3223C150.36 21.796 149.467 20.7028 149.159 19.9247C147.787 16.0625 143.543 12.5336 138.31 10.9385C135.754 10.1819 129.881 9.23559 126.685 9.12775L124.534 9.04221L125.09 10.5575Z" fill="#F56B07"/>
</svg>
