<svg width="61" height="61" viewBox="0 0 61 61" fill="none" xmlns="http://www.w3.org/2000/svg">
<circle cx="30.4167" cy="30.4167" r="30.4167" fill="#D9D9D9"/>
<path d="M13 46.7306C13 46.1226 13 45.5146 13.0222 44.8948C13.0709 44.8602 13.1139 44.8419 13.1215 44.814C13.3579 43.9384 13.9202 43.2671 14.5348 42.6472C16.8901 40.2712 19.2607 37.9105 21.6294 35.548C21.8551 35.323 21.9489 35.1339 21.7704 34.8035C21.4031 34.124 21.08 33.4189 20.7689 32.7111C20.0807 31.1454 19.8146 29.4837 19.7255 27.7911C19.7002 27.3099 19.7321 26.8196 19.7952 26.3411C19.9105 25.4665 20.009 24.5827 20.2204 23.729C20.7672 21.5219 21.8537 19.5794 23.3534 17.8843C24.3032 16.8107 25.3931 15.8863 26.6314 15.1368C28.3508 14.0963 30.1799 13.3891 32.1788 13.1347C32.229 13.1283 32.2695 13.0466 32.3146 13C33.6457 13 34.9768 13 36.3192 13.0247C36.5223 13.1028 36.7112 13.1739 36.9064 13.2068C38.2472 13.4325 39.5195 13.8642 40.7411 14.4556C41.7309 14.9347 42.6749 15.4938 43.4834 16.2391C44.2819 16.9752 45.0872 17.7189 45.7806 18.5501C46.6024 19.535 47.2374 20.6554 47.7241 21.8545C48.1878 22.9969 48.5402 24.1653 48.6954 25.3909C48.7017 25.441 48.7834 25.4815 48.83 25.5265C48.83 26.8576 48.83 28.1887 48.8052 29.5311C48.7503 29.6126 48.7073 29.6801 48.6922 29.7533C48.5944 30.2277 48.5226 30.7084 48.4055 31.1778C48.0101 32.762 47.3518 34.2348 46.4494 35.5934C45.6918 36.7342 44.7883 37.7471 43.7409 38.6366C42.8833 39.365 41.9646 39.9911 40.9659 40.507C39.9115 41.0517 38.818 41.4975 37.6492 41.7071C36.6771 41.8814 35.6947 42.029 34.7105 42.0947C34.0519 42.1386 33.375 42.0646 32.7194 41.9607C31.8413 41.8216 30.968 41.633 30.107 41.4101C29.0142 41.1271 28.0065 40.6219 27.0299 40.0662C26.7266 39.8936 26.5339 39.9502 26.3114 40.1711C23.7507 42.7131 21.1945 45.2599 18.6129 47.7807C18.2767 48.109 17.8042 48.2971 17.3967 48.5532C17.2577 48.6406 17.1247 48.7374 16.9889 48.83C16.3809 48.83 15.773 48.83 15.1536 48.8082C15.1199 48.7597 15.1029 48.7188 15.0746 48.7082C14.1415 48.3599 13.5016 47.7169 13.1331 46.795C13.1196 46.7612 13.0457 46.7515 13 46.7306ZM41.9727 20.1023C40.9282 19.0144 39.7124 18.1779 38.3108 17.6172C37.244 17.1904 36.1408 16.8985 34.9901 16.8573C34.3443 16.8342 33.6936 16.8721 33.0485 16.924C31.938 17.0135 30.8787 17.3259 29.8726 17.7933C28.3267 18.5115 27.0058 19.5214 25.9411 20.8685C25.2207 21.7799 24.6648 22.7731 24.2643 23.8587C23.7637 25.2155 23.5492 26.6081 23.6253 28.0601C23.6776 29.0566 23.8423 30.0254 24.1558 30.9617C24.6191 32.3457 25.3518 33.5923 26.3258 34.678C27.2235 35.6786 28.2898 36.4774 29.4911 37.0894C30.5009 37.6038 31.5737 37.9319 32.6865 38.1137C33.2503 38.2058 33.8271 38.2468 34.3987 38.2528C34.8301 38.2573 35.2621 38.1639 35.6947 38.1242C36.6944 38.0326 37.6468 37.7495 38.5549 37.3449C40.2855 36.5738 41.7301 35.4413 42.8732 33.9091C44.0956 32.2706 44.7818 30.4343 44.9649 28.4221C45.0552 27.4297 44.9853 26.4278 44.782 25.433C44.365 23.3931 43.444 21.6347 41.9727 20.1023Z" fill="black"/>
<path d="M29.0452 25.7566C28.7214 26.4386 27.9936 26.849 27.3867 26.7066C26.4835 26.4948 26.0048 25.7851 26.1075 25.0972C26.1798 24.6125 26.381 24.1148 26.6434 23.6976C27.1057 22.9625 27.6 22.2294 28.1916 21.5993C28.6981 21.0597 29.3397 20.6367 29.9568 20.2136C31.0048 19.4952 32.1973 19.0868 33.4361 18.898C34.4673 18.7409 35.5283 18.6859 36.5622 18.9494C37.3105 19.14 38.0655 19.3282 38.7839 19.6049C39.3824 19.8354 39.629 20.5034 39.5858 21.063C39.5364 21.7027 39.0362 22.3393 38.4866 22.4324C37.9753 22.5189 37.4869 22.3724 36.9864 22.208C35.4189 21.6931 33.8693 21.7489 32.3376 22.4384C30.8126 23.1248 29.7545 24.2401 29.0452 25.7566Z" fill="black"/>
</svg>
