<svg width="34" height="34" viewBox="0 0 34 34" fill="none" xmlns="http://www.w3.org/2000/svg">
<path d="M1.21831e-09 32.0078C-1.98e-07 31.4309 -1.91969e-07 30.854 0.0211073 30.2659C0.0673182 30.233 0.108098 30.2156 0.115248 30.1891C0.339612 29.3583 0.873224 28.7213 1.45642 28.133C3.6914 25.8784 5.94091 23.6382 8.18871 21.3964C8.40282 21.1828 8.49188 21.0035 8.32244 20.6899C7.97394 20.0451 7.66736 19.3761 7.37213 18.7044C6.71905 17.2186 6.46659 15.6418 6.38204 14.0356C6.35801 13.579 6.38829 13.1138 6.44814 12.6597C6.55753 11.8298 6.651 10.9912 6.85166 10.1811C7.37045 8.08666 8.40147 6.24336 9.82458 4.63486C10.7259 3.61609 11.7601 2.73886 12.9352 2.02771C14.5668 1.04035 16.3025 0.369185 18.1993 0.127788C18.2469 0.121729 18.2854 0.0441977 18.3281 2.22846e-10C19.5912 -6.61834e-08 20.8543 -5.93718e-08 22.1282 0.023456C22.321 0.0975944 22.5001 0.165065 22.6854 0.196254C23.9578 0.410436 25.1651 0.820074 26.3242 1.38122C27.2635 1.83588 28.1593 2.36638 28.9265 3.07362C29.6842 3.77213 30.4483 4.47788 31.1064 5.26661C31.8862 6.20126 32.4888 7.26438 32.9506 8.40225C33.3907 9.48636 33.725 10.5951 33.8723 11.7581C33.8783 11.8056 33.9558 11.8441 34 11.8867C34 13.1498 34 14.4129 33.9765 15.6868C33.9244 15.7641 33.8836 15.8281 33.8692 15.8976C33.7765 16.3478 33.7083 16.8039 33.5972 17.2494C33.222 18.7527 32.5973 20.1503 31.741 21.4395C31.0221 22.522 30.1647 23.4832 29.1708 24.3273C28.3571 25.0184 27.4853 25.6125 26.5376 26.1021C25.537 26.619 24.4994 27.0421 23.3903 27.2409C22.4678 27.4063 21.5356 27.5463 20.6017 27.6087C19.9767 27.6504 19.3344 27.5802 18.7123 27.4816C17.879 27.3496 17.0503 27.1706 16.2333 26.9591C15.1963 26.6906 14.24 26.2112 13.3134 25.6838C13.0256 25.52 12.8427 25.5738 12.6316 25.7833C10.2016 28.1956 7.77594 30.6123 5.32623 33.0043C5.00722 33.3158 4.5588 33.4943 4.17216 33.7374C4.04025 33.8203 3.91399 33.9122 3.78516 34C3.20825 34 2.63134 34 2.04358 33.9793C2.01162 33.9333 1.99553 33.8945 1.96868 33.8844C1.08322 33.5539 0.475984 32.9438 0.126279 32.0689C0.11346 32.0368 0.0433898 32.0277 1.21831e-09 32.0078ZM27.493 6.73958C26.5018 5.70722 25.3481 4.91349 24.0181 4.38136C23.0058 3.97635 21.9589 3.69941 20.867 3.6603C20.2542 3.63835 19.6367 3.6743 19.0245 3.72362C17.9708 3.80851 16.9656 4.10496 16.0109 4.54849C14.5439 5.23005 13.2904 6.18833 12.2802 7.46662C11.5966 8.33151 11.069 9.27397 10.689 10.3042C10.2139 11.5916 10.0104 12.9131 10.0827 14.2909C10.1323 15.2366 10.2886 16.1559 10.586 17.0443C11.0257 18.3576 11.721 19.5406 12.6452 20.5708C13.497 21.5203 14.5089 22.2783 15.6489 22.8591C16.607 23.3472 17.625 23.6586 18.6811 23.8311C19.216 23.9184 19.7634 23.9573 20.3058 23.963C20.7152 23.9674 21.125 23.8787 21.5356 23.841C22.4842 23.7541 23.388 23.4855 24.2497 23.1015C25.8919 22.3698 27.2627 21.2952 28.3474 19.8412C29.5074 18.2864 30.1585 16.5439 30.3323 14.6344C30.418 13.6927 30.3517 12.742 30.1587 11.798C29.7631 9.86227 28.8891 8.1937 27.493 6.73958Z" fill="#EFEFEF"/>
<path d="M15.2255 12.1053C14.9183 12.7525 14.2276 13.1419 13.6517 13.0068C12.7946 12.8058 12.3404 12.1323 12.4378 11.4796C12.5065 11.0196 12.6974 10.5473 12.9464 10.1514C13.3851 9.45386 13.8542 8.7582 14.4155 8.1603C14.8961 7.64831 15.505 7.24687 16.0906 6.84538C17.085 6.16365 18.2166 5.77613 19.3922 5.59698C20.3707 5.44786 21.3775 5.39573 22.3586 5.64571C23.0687 5.82665 23.7852 6.00523 24.4669 6.2678C25.0348 6.48655 25.2687 7.12038 25.2277 7.6514C25.1808 8.25844 24.7062 8.86251 24.1847 8.95082C23.6996 9.03296 23.2361 8.89395 22.7612 8.73793C21.2737 8.24928 19.8032 8.30223 18.3497 8.95654C16.9027 9.60792 15.8986 10.6663 15.2255 12.1053Z" fill="#F56B07"/>
</svg>
