<svg width="50" height="50" viewBox="0 0 50 50" fill="none" xmlns="http://www.w3.org/2000/svg">
<circle cx="25" cy="25" r="25" fill="#D9D9D9"/>
<path d="M19.0293 43.7383C19 43.0303 18.9857 42.3219 19.0032 41.6144C19.0326 40.4294 19.4446 39.3683 20.1169 38.406C20.7167 37.5474 21.4988 36.8813 22.4515 36.4599C23.0511 36.1947 23.7033 36.0483 24.2507 35.8744C23.5029 35.7454 22.8138 35.3113 22.2786 34.6633C21.7554 34.03 21.4722 33.2533 21.5172 32.4488C21.6502 30.074 23.4008 28.9796 25.048 29.0003C26.9518 29.0243 28.2699 30.4751 28.4355 32.0016C28.6928 34.373 26.9843 35.6716 25.5891 35.8942C26.4403 36.0284 27.194 36.2332 27.8834 36.6168C28.8156 37.1356 29.5673 37.843 30.1317 38.759C30.7577 39.775 31.0383 40.8685 31.0028 42.0556C30.9865 42.5965 31 43.1383 31 43.709C27.0195 43.7383 23.0391 43.7383 19.0293 43.7383Z" fill="black"/>
<path d="M9 40.8927C9.04163 40.8228 9.10995 40.7884 9.12091 40.7407C9.29724 39.9747 9.63573 39.2799 10.1125 38.666C10.8457 37.7219 11.7966 37.0724 12.952 36.7417C13.2477 36.6571 13.5516 36.6013 13.8806 36.5257C12.1682 36.134 11.143 34.6882 11.3258 33.0459C11.5143 31.3535 12.8745 30.1209 14.6131 30.1924C16.3428 30.2635 17.4969 31.4164 17.6748 33.0281C17.8826 34.9101 16.6334 36.1611 15.2125 36.534C16.3655 36.7228 17.3871 37.1825 18.2067 37.9224C17.9421 38.6156 17.6566 39.2663 17.4464 39.9406C17.2208 40.6645 17.1572 41.4193 17.1842 42.1812C17.2019 42.6802 17.1876 43.1803 17.1875 43.7091C14.6237 43.7384 12.0599 43.7384 9.48553 43.7205C9.31665 43.5688 9.15832 43.4348 9 43.3009C9 42.5079 9 41.715 9 40.8927Z" fill="black"/>
<path d="M32.8418 43.7384C32.8125 43.1761 32.7979 42.6132 32.8153 42.0514C32.8607 40.5834 32.4734 39.231 31.7551 37.9531C32.6265 37.1836 33.6414 36.7132 34.8879 36.5468C32.7519 35.9387 32.1014 34.2936 32.3358 32.9172C32.6592 31.0182 34.0403 30.1635 35.5679 30.1939C37.3129 30.2286 38.5262 31.5075 38.6766 33.0759C38.8389 34.7669 37.7623 36.1531 36.1593 36.517C36.5753 36.6314 37.004 36.731 37.4203 36.8682C38.0296 37.069 38.5567 37.4138 39.0568 37.8173C39.7041 38.3394 40.1744 38.9877 40.5181 39.7306C40.6682 40.0552 40.7568 40.4081 40.8763 40.7471C40.8955 40.8013 40.9304 40.85 40.979 40.8824C41 41.6564 41 42.4494 40.9821 43.2529C40.8303 43.4218 40.6964 43.5801 40.5625 43.7384C37.9987 43.7384 35.4349 43.7384 32.8418 43.7384Z" fill="black"/>
<path d="M34.3333 5H15.6667C14.1939 5 13 5.89543 13 7V21C13 22.1046 14.1939 23 15.6667 23H21L25 26.5L29 23H34.3333C35.8061 23 37 22.1046 37 21V7C37 5.89543 35.8061 5 34.3333 5Z" stroke="black" stroke-width="2" stroke-linecap="round" stroke-linejoin="round"/>
<path d="M21 14H29" stroke="black" stroke-width="2" stroke-linecap="round" stroke-linejoin="round"/>
<path d="M25 10V18" stroke="black" stroke-width="2" stroke-linecap="round" stroke-linejoin="round"/>
</svg>
