<svg width="32" height="32" viewBox="0 0 32 32" fill="none" xmlns="http://www.w3.org/2000/svg">
<g clip-path="url(#clip0_128_97)">
<path d="M0.0625 10.8125C0.0625002 8.04036 0.0625002 5.26822 0.0825403 2.48555C0.125989 2.45451 0.162789 2.43827 0.17088 2.41288C0.52757 1.29353 1.2619 0.550263 2.37793 0.181119C2.40762 0.1713 2.41808 0.103344 2.4375 0.0625C11.5013 0.0625 20.5651 0.0625 29.6394 0.0825405C29.6705 0.12599 29.6867 0.162799 29.7121 0.170881C30.8318 0.527285 31.5745 1.26213 31.9439 2.37793C31.9537 2.40762 32.0217 2.41808 32.0625 2.4375C32.0625 5.20964 32.0625 7.98178 32.0427 10.7641C31.9942 10.8243 31.9559 10.8713 31.9381 10.925C31.4528 12.3902 30.1951 13.2421 28.7007 13.2473C25.9627 13.2569 23.2246 13.2563 20.4865 13.2443C19.9886 13.2422 19.5832 13.3046 19.1852 13.6914C18.4566 14.3996 17.6386 15.0159 16.8591 15.672C16.4295 16.0336 15.8922 16.1665 15.4241 15.7727C14.5516 15.0388 13.6666 14.3197 12.8037 13.5748C12.5591 13.3636 12.329 13.2409 11.9909 13.2424C9.09674 13.2557 6.20245 13.2557 3.30824 13.2452C2.72755 13.2431 2.18444 13.0674 1.67293 12.7761C0.920605 12.3476 0.450399 11.7102 0.183608 10.9019C0.170772 10.863 0.104101 10.8419 0.0625 10.8125ZM4.97555 3.56254C4.87139 3.56253 4.76695 3.55753 4.66312 3.56339C4.2133 3.58877 3.90853 3.94853 3.86883 4.3939C3.81329 5.01701 4.37679 5.37586 4.90198 5.37558C7.34964 5.37428 9.79731 5.375 12.245 5.375C14.651 5.375 17.057 5.37686 19.463 5.37304C19.8333 5.37245 20.1688 5.26414 20.3756 4.92739C20.7726 4.28072 20.2765 3.55311 19.566 3.55517C14.7228 3.56921 9.87955 3.56253 4.97555 3.56254ZM26.3437 9.75C26.6559 9.75 26.969 9.7647 27.2801 9.746C27.6127 9.726 27.9267 9.62576 28.1177 9.32734C28.2989 9.04436 28.3224 8.72274 28.1767 8.42434C28.0148 8.09282 27.7275 7.935 27.3462 7.93542C24.0157 7.93905 20.6853 7.93753 17.3548 7.93753C16.6367 7.93754 15.9185 7.94369 15.2005 7.93517C14.7636 7.92999 14.3021 8.53786 14.4284 9.00735C14.5677 9.52536 15.0634 9.75151 15.4781 9.75125C19.0791 9.74908 22.6802 9.75 26.3437 9.75ZM8.46875 7.93754C7.22981 7.93753 5.99086 7.93618 4.75192 7.93814C4.23316 7.93896 3.90971 8.28523 3.86829 8.77318C3.81617 9.38706 4.37649 9.75156 4.90561 9.75097C7.0191 9.74862 9.13259 9.75152 11.2461 9.74729C11.427 9.74693 11.6074 9.69937 11.7889 9.68932C12.1514 9.66925 12.5402 9.1335 12.5004 8.74871C12.4541 8.30009 12.0683 7.93873 11.6234 7.93804C10.5927 7.93646 9.56197 7.93754 8.46875 7.93754ZM26.9662 3.56254C25.7685 3.56253 24.5707 3.56089 23.3729 3.56325C22.8409 3.56429 22.5248 3.90917 22.4933 4.43267C22.4595 4.99691 22.9615 5.37087 23.5033 5.37329C24.7219 5.37874 25.9406 5.3833 27.1591 5.36746C27.3821 5.36456 27.6119 5.28451 27.8247 5.20354C28.3391 5.0078 28.4306 4.09131 27.9073 3.73373C27.6192 3.53689 27.3279 3.57839 26.9662 3.56254Z" fill="#EFEFEF"/>
<path d="M10.0918 32.0625C10.0625 31.3545 10.0482 30.6461 10.0657 29.9386C10.0951 28.7536 10.5071 27.6925 11.1794 26.7302C11.7792 25.8716 12.5613 25.2055 13.514 24.7841C14.1136 24.5189 14.7658 24.3725 15.3132 24.1986C14.5654 24.0696 13.8763 23.6355 13.3411 22.9875C12.8179 22.3542 12.5347 21.5775 12.5797 20.773C12.7127 18.3982 14.4633 17.3038 16.1105 17.3245C18.0143 17.3485 19.3324 18.7993 19.498 20.3258C19.7553 22.6972 18.0468 23.9958 16.6516 24.2184C17.5028 24.3526 18.2565 24.5574 18.9459 24.941C19.8781 25.4598 20.6298 26.1672 21.1942 27.0832C21.8202 28.0992 22.1008 29.1927 22.0653 30.3798C22.049 30.9207 22.0625 31.4625 22.0625 32.0332C18.082 32.0625 14.1016 32.0625 10.0918 32.0625Z" fill="#EFEFEF"/>
<path d="M0.0625 29.2168C0.104133 29.1469 0.172446 29.1125 0.183413 29.0648C0.359738 28.2988 0.698228 27.604 1.17501 26.9901C1.90822 26.046 2.85905 25.3965 4.0145 25.0658C4.31015 24.9812 4.61407 24.9254 4.9431 24.8498C3.23069 24.4581 2.20549 23.0123 2.38834 21.37C2.57679 19.6776 3.93701 18.445 5.67563 18.5165C7.40533 18.5876 8.55935 19.7405 8.73732 21.3522C8.94514 23.2342 7.69586 24.4852 6.27504 24.8581C7.428 25.0469 8.44955 25.5066 9.26922 26.2465C9.00462 26.9397 8.71906 27.5904 8.50891 28.2647C8.28327 28.9886 8.21975 29.7434 8.24673 30.5053C8.26441 31.0043 8.25007 31.5044 8.25004 32.0332C5.68619 32.0625 3.12239 32.0625 0.548026 32.0446C0.379146 31.8929 0.220823 31.7589 0.0625001 31.625C0.0625003 30.832 0.0625003 30.0391 0.0625 29.2168Z" fill="#EFEFEF"/>
<path d="M23.9043 32.0625C23.875 31.5002 23.8604 30.9373 23.8778 30.3755C23.9232 28.9075 23.5359 27.5551 22.8176 26.2772C23.689 25.5077 24.7039 25.0373 25.9504 24.8709C23.8144 24.2628 23.1639 22.6177 23.3983 21.2413C23.7217 19.3423 25.1028 18.4876 26.6304 18.518C28.3754 18.5527 29.5887 19.8316 29.7391 21.4C29.9014 23.091 28.8248 24.4772 27.2218 24.8411C27.6378 24.9555 28.0665 25.0551 28.4828 25.1923C29.0921 25.3931 29.6192 25.7379 30.1193 26.1414C30.7666 26.6635 31.2369 27.3118 31.5806 28.0547C31.7307 28.3793 31.8193 28.7322 31.9388 29.0712C31.958 29.1254 31.9929 29.1741 32.0415 29.2065C32.0625 29.9805 32.0625 30.7735 32.0446 31.577C31.8928 31.7459 31.7589 31.9042 31.625 32.0625C29.0612 32.0625 26.4974 32.0625 23.9043 32.0625Z" fill="#EFEFEF"/>
</g>
<defs>
<clipPath id="clip0_128_97">
<rect width="32" height="32" fill="white"/>
</clipPath>
</defs>
</svg>
