<svg width="28" height="29" viewBox="0 0 28 29" fill="none" xmlns="http://www.w3.org/2000/svg">
<path d="M27.7471 3.66333L16.1047 16.655C15.9584 16.8109 15.7567 16.8989 15.5459 16.8989C15.3351 16.8989 15.1333 16.8109 14.987 16.655L11.7427 13.3234C11.5909 13.1732 11.5052 12.966 11.5052 12.7496C11.5052 12.5331 11.5909 12.3259 11.7427 12.1757L24.3941 0.220134C24.6939 -0.073378 25.1654 -0.073378 25.4652 0.220134L27.7005 2.5156C27.8586 2.65923 27.9529 2.86275 27.9617 3.07929C27.9704 3.29583 27.893 3.5067 27.7471 3.66333ZM13.4968 19.0621L9.44527 14.8856C9.19983 14.6209 8.87934 14.4424 8.5294 14.3755C8.2761 14.3592 8.02206 14.3592 7.76876 14.3755C6.12146 14.3742 4.54116 15.0451 3.3757 16.2406C0.271058 19.4287 2.64611 22.9197 0.131349 26.7615C-0.0741015 27.0764 -0.0351555 27.4963 0.224488 27.7657C1.01669 28.3905 1.98875 28.727 2.98762 28.7222C6.38196 28.9562 9.71443 27.7055 12.1618 25.279C13.3298 24.0783 13.9835 22.4489 13.978 20.7518C13.978 20.4967 13.978 20.2258 13.978 19.9707C13.9204 19.6213 13.7511 19.3016 13.4968 19.0621Z" fill="#EFEFEF"/>
</svg>
