<svg width="31" height="30" viewBox="0 0 31 30" fill="none" xmlns="http://www.w3.org/2000/svg">
<path d="M0 16.3303C1.81641e-07 15.8043 1.80444e-07 15.2783 0.0196772 14.7416C0.0656587 14.7025 0.107757 14.6778 0.115895 14.6448C0.235157 14.1608 0.522577 13.7808 0.865227 13.438C5.0215 9.2798 9.18005 5.12384 13.3355 0.9648C14.0582 0.241486 14.8919 -0.118356 15.9364 0.0348131C16.5229 0.120816 17.0333 0.344517 17.4398 0.749729C21.6609 4.95726 25.8715 9.17519 30.0882 13.3871C30.4414 13.7399 30.7141 14.1364 30.8825 14.6067C30.8963 14.6453 30.9597 14.6663 31 14.6955C31 15.2215 31 15.7475 30.9803 16.2841C30.9343 16.3233 30.8924 16.3479 30.884 16.381C30.5905 17.5312 29.3634 18.4012 28.1558 18.3332C27.637 18.304 27.1152 18.3283 26.5801 18.3283C26.5801 18.471 26.5801 18.5804 26.5801 18.6898C26.5801 21.6239 26.5777 24.5581 26.582 27.4923C26.5829 28.136 26.3327 28.6768 25.9089 29.1321C25.4319 29.6445 24.8108 29.8798 24.1188 29.8889C22.9998 29.9035 21.8804 29.894 20.7612 29.8925C19.007 29.8902 17.2528 29.8861 15.4931 29.8719C15.4777 29.8473 15.4646 29.8381 15.4433 29.8054C15.4384 27.0746 15.4374 24.372 15.4393 21.6693C15.4398 21.0225 14.9964 20.5688 14.3507 20.5686C12.9591 20.5683 11.5674 20.5684 10.1757 20.5686C9.5499 20.5687 9.08215 21.04 9.08212 21.6705C9.082 24.3026 9.08207 26.9346 9.08207 29.5667C9.08207 29.6728 9.08207 29.7789 9.08207 29.8323C8.18 29.8323 7.31457 29.8857 6.45847 29.8191C5.32593 29.731 4.43503 28.6911 4.42719 27.5932C4.40594 24.6184 4.41992 21.6433 4.41992 18.6684C4.41992 18.561 4.41992 18.4535 4.41992 18.3283C3.78644 18.3283 3.18311 18.3372 2.5803 18.3233C2.37848 18.3187 2.1726 18.2742 1.97785 18.2166C1.04789 17.9416 0.433472 17.3346 0.117513 16.4192C0.104198 16.3806 0.0403216 16.3595 0 16.3303Z" fill="#EFEFEF"/>
</svg>
