<svg width="14" height="14" viewBox="0 0 14 14" fill="none" xmlns="http://www.w3.org/2000/svg">
<path d="M0.344815 7.83159L6.17334 13.6673C6.28421 13.7736 6.41493 13.8569 6.55803 13.9124C6.84183 14.0292 7.16016 14.0292 7.44396 13.9124C7.58706 13.8569 7.71778 13.7736 7.82865 13.6673L13.6572 7.83159C13.7659 7.72276 13.8521 7.59357 13.9109 7.45139C13.9697 7.3092 14 7.15681 14 7.00291C14 6.6921 13.8767 6.39401 13.6572 6.17423C13.4377 5.95445 13.14 5.83098 12.8295 5.83098C12.5191 5.83098 12.2214 5.95445 12.0019 6.17423L8.1667 10.0258L8.1667 1.16715C8.1667 0.857604 8.04389 0.560734 7.82527 0.34185C7.60666 0.122967 7.31016 0 7.00099 0C6.69183 0 6.39533 0.122967 6.17672 0.34185C5.9581 0.560734 5.83529 0.857604 5.83529 1.16715L5.83529 10.0258L2.00012 6.17423C1.89175 6.06484 1.76282 5.97801 1.62077 5.91875C1.47872 5.8595 1.32635 5.82899 1.17247 5.82899C1.01858 5.82899 0.866215 5.8595 0.724162 5.91875C0.58211 5.97801 0.453183 6.06484 0.344815 6.17423C0.235556 6.28273 0.148832 6.41182 0.0896502 6.55405C0.0304689 6.69628 9.53674e-07 6.84883 9.53674e-07 7.00291C9.53674e-07 7.15699 0.0304689 7.30954 0.0896502 7.45177C0.148832 7.594 0.235556 7.72309 0.344815 7.83159Z" fill="#EFEFEF"/>
</svg>
