<svg width="18" height="20" viewBox="0 0 18 20" fill="none" xmlns="http://www.w3.org/2000/svg">
<path d="M10.7462 10.6973C10.7462 10.4382 10.6433 10.1898 10.4601 10.0066C10.2768 9.82335 10.0284 9.72042 9.76927 9.72042H4.88463C4.62554 9.72042 4.37705 9.82335 4.19384 10.0066C4.01063 10.1898 3.90771 10.4382 3.90771 10.6973C3.90771 10.9564 4.01063 11.2049 4.19384 11.3881C4.37705 11.5713 4.62554 11.6743 4.88463 11.6743H9.76927C10.0284 11.6743 10.2768 11.5713 10.4601 11.3881C10.6433 11.2049 10.7462 10.9564 10.7462 10.6973ZM15.6308 15.582C15.2159 15.5833 14.8121 15.7168 14.4781 15.963L12.7684 15.1814L14.6344 14.3217C14.9293 14.5008 15.2663 14.5985 15.6113 14.6051C15.9977 14.6051 16.3755 14.4905 16.6968 14.2758C17.0181 14.0611 17.2685 13.7559 17.4164 13.3989C17.5643 13.0419 17.603 12.649 17.5276 12.27C17.4522 11.891 17.2661 11.5429 16.9929 11.2696C16.7196 10.9964 16.3715 10.8103 15.9925 10.7349C15.6135 10.6595 15.2206 10.6982 14.8636 10.8461C14.5066 10.994 14.2014 11.2444 13.9867 11.5657C13.772 11.887 13.6574 12.2648 13.6574 12.6512L11.811 13.5011C11.5581 13.3216 11.266 13.2049 10.959 13.1607C10.6519 13.1165 10.3388 13.146 10.0454 13.2468C9.75209 13.3476 9.48695 13.5168 9.27197 13.7404C9.05698 13.9641 8.89832 14.2356 8.80911 14.5327C8.7199 14.8298 8.70271 15.1439 8.75896 15.4489C8.8152 15.754 8.94327 16.0412 9.13256 16.287C9.32186 16.5327 9.56694 16.7298 9.84754 16.8621C10.1281 16.9943 10.4362 17.0578 10.7462 17.0474C11.0609 17.0475 11.3704 16.9668 11.645 16.8129L13.6965 17.7898C13.7398 18.1636 13.8901 18.517 14.1294 18.8074C14.3686 19.0979 14.6867 19.313 15.0453 19.4271C15.4039 19.5411 15.7878 19.5492 16.1508 19.4503C16.5139 19.3514 16.8407 19.1498 17.092 18.8696C17.3432 18.5895 17.5082 18.2428 17.5671 17.8711C17.6261 17.4995 17.5764 17.1187 17.4242 16.7746C17.2719 16.4305 17.0236 16.1376 16.7089 15.9313C16.3942 15.7249 16.0267 15.6138 15.6504 15.6113L15.6308 15.582ZM7.81541 17.5358H2.93078C2.67168 17.5358 2.4232 17.4329 2.23999 17.2497C2.05678 17.0665 1.95385 16.818 1.95385 16.5589V2.88193C1.95385 2.62284 2.05678 2.37435 2.23999 2.19114C2.4232 2.00793 2.67168 1.90501 2.93078 1.90501H7.81541V4.83579C7.81541 5.61308 8.12419 6.35853 8.67382 6.90816C9.22345 7.45779 9.9689 7.76657 10.7462 7.76657H13.677C13.677 8.02566 13.7799 8.27415 13.9631 8.45736C14.1463 8.64057 14.3948 8.74349 14.6539 8.74349C14.913 8.74349 15.1615 8.64057 15.3447 8.45736C15.5279 8.27415 15.6308 8.02566 15.6308 7.76657V6.78964C15.6308 6.78964 15.6308 6.78964 15.6308 6.73102C15.6207 6.64128 15.601 6.55286 15.5722 6.46725V6.37933C15.5252 6.27888 15.4626 6.18655 15.3866 6.10579L9.52503 0.244232C9.44428 0.168243 9.35194 0.105587 9.2515 0.0586157C9.21918 0.0529588 9.18612 0.0529588 9.1538 0.0586157C9.07183 0.0288424 8.98653 0.00915902 8.8998 0H2.93078C2.15349 0 1.40803 0.308778 0.858406 0.858406C0.308778 1.40803 0 2.15349 0 2.93078V16.6078C0 17.385 0.308778 18.1305 0.858406 18.6801C1.40803 19.2298 2.15349 19.5385 2.93078 19.5385H7.81541C8.07451 19.5385 8.323 19.4356 8.5062 19.2524C8.68941 19.0692 8.79234 18.8207 8.79234 18.5616C8.79234 18.3025 8.68941 18.054 8.5062 17.8708C8.323 17.6876 8.07451 17.5847 7.81541 17.5847V17.5358ZM9.76927 3.28247L12.2995 5.81271H10.7462C10.4871 5.81271 10.2386 5.70979 10.0554 5.52658C9.87219 5.34337 9.76927 5.09488 9.76927 4.83579V3.28247ZM4.88463 13.6281C4.62554 13.6281 4.37705 13.7311 4.19384 13.9143C4.01063 14.0975 3.90771 14.346 3.90771 14.6051C3.90771 14.8642 4.01063 15.1126 4.19384 15.2958C4.37705 15.4791 4.62554 15.582 4.88463 15.582H5.86156C6.12066 15.582 6.36914 15.4791 6.55235 15.2958C6.73556 15.1126 6.83849 14.8642 6.83849 14.6051C6.83849 14.346 6.73556 14.0975 6.55235 13.9143C6.36914 13.7311 6.12066 13.6281 5.86156 13.6281H4.88463ZM4.88463 7.76657H5.86156C6.12066 7.76657 6.36914 7.66364 6.55235 7.48043C6.73556 7.29722 6.83849 7.04874 6.83849 6.78964C6.83849 6.53054 6.73556 6.28206 6.55235 6.09885C6.36914 5.91564 6.12066 5.81271 5.86156 5.81271H4.88463C4.62554 5.81271 4.37705 5.91564 4.19384 6.09885C4.01063 6.28206 3.90771 6.53054 3.90771 6.78964C3.90771 7.04874 4.01063 7.29722 4.19384 7.48043C4.37705 7.66364 4.62554 7.76657 4.88463 7.76657Z" fill="#EFEFEF"/>
</svg>
