<svg width="14" height="14" viewBox="0 0 14 14" fill="none" xmlns="http://www.w3.org/2000/svg">
<path d="M13.6552 6.16841L7.82666 0.332654C7.71579 0.226396 7.58507 0.143102 7.44197 0.0875521C7.15817 -0.0291841 6.83984 -0.0291841 6.55604 0.0875521C6.41294 0.143102 6.28222 0.226396 6.17135 0.332654L0.342824 6.16841C0.234136 6.27724 0.147919 6.40643 0.0890975 6.54861C0.0302756 6.6908 0 6.84319 0 6.99709C0 7.3079 0.123318 7.60599 0.342824 7.82577C0.562331 8.04555 0.860046 8.16902 1.17048 8.16902C1.48091 8.16902 1.77862 8.04555 1.99813 7.82577L5.8333 3.97417V12.8328C5.8333 13.1424 5.95611 13.4393 6.17473 13.6581C6.39334 13.877 6.68984 14 6.99901 14C7.30817 14 7.60467 13.877 7.82328 13.6581C8.0419 13.4393 8.16471 13.1424 8.16471 12.8328V3.97417L11.9999 7.82577C12.1083 7.93516 12.2372 8.02199 12.3792 8.08125C12.5213 8.1405 12.6736 8.17101 12.8275 8.17101C12.9814 8.17101 13.1338 8.1405 13.2758 8.08125C13.4179 8.02199 13.5468 7.93516 13.6552 7.82577C13.7644 7.71727 13.8512 7.58818 13.9103 7.44595C13.9695 7.30372 14 7.15117 14 6.99709C14 6.84301 13.9695 6.69046 13.9103 6.54823C13.8512 6.406 13.7644 6.27691 13.6552 6.16841Z" fill="#F56B07"/>
</svg>
